<?xml version="1.0" standalone="no"?><!DOCTYPE svg PUBLIC "-//W3C//DTD SVG 1.1//EN" "http://www.w3.org/Graphics/SVG/1.1/DTD/svg11.dtd"><svg t="1582193121079" class="icon" viewBox="0 0 1024 1024" version="1.1" xmlns="http://www.w3.org/2000/svg" p-id="29109" width="128" height="128" xmlns:xlink="http://www.w3.org/1999/xlink"><defs><style type="text/css"></style></defs><path d="M996.367 766.731c-25.64-1.447-45.718-22.609-45.812-48.29a45.464 45.464 0 0 1 5.441-21.973c6.791-14.26 1.555-31.343-12.06-39.349l-16.301-9.709-15.662-8.942c-13.569-7.81-30.86-3.924-39.782 8.942-14.712 22.294-44.713 28.441-67.008 13.729a48.33 48.33 0 0 1-13.73-13.729c-8.875-12.987-26.286-16.893-39.858-8.942l-16.786 8.942-15.714 9.197c-13.678 7.956-18.913 25.11-12.009 39.349a44.408 44.408 0 0 1 5.366 21.717c0.041 25.778-20.074 47.096-45.812 48.546v0.512c-15.854 1.15-28.035 14.509-27.723 30.403v36.79c0.153 15.714 12.089 28.804 27.723 30.403l0.639 0.512a47.756 47.756 0 0 1 38.76 24.271 48.544 48.544 0 0 1 1.047 45.991c-6.854 14.319-1.644 31.502 12.009 39.604l31.938 18.651c13.617 7.865 30.999 3.846 39.782-9.198a47.757 47.757 0 0 1 40.369-21.717 48.95 48.95 0 0 1 40.445 21.717c8.679 13.162 26.152 17.207 39.73 9.198l31.989-18.907c13.354-7.838 18.555-24.549 12.009-38.581-6.516-14.31 0-0.768-0.588-0.768a9.474 9.474 0 0 1-1.201-1.787l-0.638-0.511a49.183 49.183 0 0 1 3.653-44.457 47.877 47.877 0 0 1 37.865-22.996l0.639-0.512c15.788-1.119 27.984-14.322 27.85-30.15v-38.325c0.673-15.461-11.13-28.626-26.572-29.64l0.002 0.009z m-116.279 49.314c-0.38 27.131-22.684 48.82-49.816 48.439s-48.82-22.684-48.439-49.818c0.376-26.869 22.273-48.456 49.148-48.443 27.263 0.141 49.249 22.354 49.109 49.616l-0.002 0.206zM646.917 924.377l-5.11-2.043-7.307-4.345c-33.681-14.269-55.626-47.227-55.802-83.805v-37.047a91.548 91.548 0 0 1 27.696-65.918s11.65-12.264 16.097-15.842a97.467 97.467 0 0 1 24.656-8.43c-9.854-36.036 3.316-74.434 33.215-96.837a317.997 317.997 0 0 0-169.269-48.802h-189.89C143.955 561.943 0.696 705.99 1.035 883.241v19.163c0 92.747 141.293 92.747 319.99 92.747h189.966c51.1 0 100.412 0 144.154-2.555a91.976 91.976 0 0 1-8.228-68.219zM406.618 536.779c140.895 0.861 255.812-112.658 256.672-253.555 0.862-140.894-112.66-255.81-253.554-256.671-140.896-0.861-255.812 112.658-256.673 253.556-0.003 0.474-0.004 0.951-0.005 1.425-0.395 140.473 113.087 254.709 253.56 255.245z" p-id="29110"></path></svg>