<?xml version="1.0" standalone="no"?><!DOCTYPE svg PUBLIC "-//W3C//DTD SVG 1.1//EN" "http://www.w3.org/Graphics/SVG/1.1/DTD/svg11.dtd"><svg t="1582192759712" class="icon" viewBox="0 0 1024 1024" version="1.1" xmlns="http://www.w3.org/2000/svg" p-id="22568" xmlns:xlink="http://www.w3.org/1999/xlink" width="64" height="64"><defs><style type="text/css"></style></defs><path d="M1024.16215 1022.976h-377.344v-134.144l125.44-120.832-125.44-120.832v-134.144H1024.16215v134.144L898.72215 768l125.44 120.832v134.144z m-60.416-394.24v-67.072h-256v67.072h256z m-90.624 173.056H798.88215l-91.136 88.064h256l-90.624-88.064z m-311.808 221.184c-32.256 2.048-77.824 0-119.808 0-21.504 0-46.08-0.512-73.728-2.048-27.648-1.536-56.32-3.584-86.528-6.144-29.696-3.072-59.392-5.632-88.576-9.216-26.624-3.072-53.76-6.656-80.384-10.24-24.576-3.072-45.056-6.656-61.44-10.752-16.384-3.584-27.136-7.168-31.744-10.752-7.168-5.632-13.312-22.016-16.896-49.664-4.096-27.648-2.56-63.488 5.12-107.008 4.608-25.088 15.36-44.032 33.28-56.832s38.4-23.04 61.44-30.72 47.616-14.848 73.216-21.504c25.6-6.144 48.128-15.36 68.096-27.136 15.36-8.704 27.136-17.408 35.328-25.088 8.192-8.192 13.824-16.384 17.408-24.576 3.072-8.192 5.12-16.384 5.12-25.088 0-8.704-0.512-18.432-1.024-28.672-1.536-16.384-7.168-28.672-16.896-37.376-10.24-8.704-21.504-17.92-33.792-27.648-6.144-4.608-11.264-11.264-15.36-19.968-4.608-8.192-8.704-16.896-12.288-26.112-4.096-10.24-7.68-20.992-11.264-31.744-5.12-1.536-10.24-3.584-15.36-7.168-4.608-3.072-9.216-8.192-13.824-14.336-4.608-6.144-9.216-14.848-12.8-26.624-3.584-11.264-5.12-22.016-4.096-31.232 1.024-9.216 3.072-17.408 6.144-25.088 3.072-8.192 7.168-15.36 13.312-22.528 0-25.6 1.536-51.712 4.608-77.312 3.072-21.504 8.192-45.056 15.36-69.632 7.168-24.576 18.944-47.104 34.304-66.56 13.824-18.432 29.696-33.28 46.592-45.056 16.896-11.776 34.304-20.992 52.224-28.16 17.408-6.656 35.84-11.776 53.76-14.336S426.14615 2.56 442.53015 2.56c21.504 0 41.984 2.56 61.44 7.168 19.456 4.608 37.888 10.752 54.272 18.432 16.896 7.68 31.744 15.872 45.056 25.6 13.312 9.728 23.552 18.944 32.256 28.672 18.432 21.504 32.256 45.568 41.472 71.68 9.216 26.112 15.36 50.688 19.456 73.728 3.584 27.136 5.12 54.272 4.608 81.408 5.12 3.584 9.216 7.68 12.288 13.312 3.072 4.608 5.12 10.752 7.168 18.432 2.048 7.168 2.048 16.384 0.512 27.648-1.536 14.848-4.608 26.624-9.216 35.328-4.608 8.192-10.24 14.848-15.872 19.968-6.656 5.632-13.824 9.216-20.992 11.264-3.584 10.752-7.168 20.992-11.264 31.744-3.584 8.704-65.024 38.4-69.12 46.592" fill="" p-id="22569"></path></svg>