<?xml version="1.0" standalone="no"?><!DOCTYPE svg PUBLIC "-//W3C//DTD SVG 1.1//EN" "http://www.w3.org/Graphics/SVG/1.1/DTD/svg11.dtd"><svg t="1582191549553" class="icon" viewBox="0 0 1024 1024" version="1.1" xmlns="http://www.w3.org/2000/svg" p-id="19706" xmlns:xlink="http://www.w3.org/1999/xlink" width="64" height="64"><defs><style type="text/css"></style></defs><path d="M768 384a668.245333 668.245333 0 0 0-88.866133 5.845333c-3.601067-9.949867-9.864533-19.515733-18.4832-28.561066C590.7968 401.578667 492.672 426.666667 384 426.666667c-108.672 0-206.7968-25.079467-276.650667-65.3824C93.149867 376.192 85.333333 392.507733 85.333333 409.6c0 70.690133 133.717333 128 298.666667 128 15.172267 0 30.08-0.4864 44.6464-1.416533a88.746667 88.746667 0 0 0-1.237333 7.108266H426.666667v78.336c-14.011733 0.861867-28.245333 1.3056-42.666667 1.3056-108.672 0-206.7968-25.079467-276.650667-65.3824C93.149867 572.458667 85.333333 588.7744 85.333333 605.866667c0 70.690133 133.717333 128 298.666667 128 14.4896 0 28.731733-0.443733 42.666667-1.297067v85.333333c-14.011733 0.853333-28.245333 1.297067-42.666667 1.297067-105.847467 0-201.685333-23.790933-271.146667-62.276267C95.189333 773.265067 85.333333 791.4752 85.333333 810.666667c0 70.690133 133.717333 128 298.666667 128 14.4896 0 28.731733-0.443733 42.666667-1.297067v15.522133h0.7424c3.140267 23.808 16.042667 46.301867 36.744533 66.4576-25.856 3.0464-52.667733 4.650667-80.1536 4.650667-212.078933 0-384-95.5136-384-213.333333V213.333333C0 95.5136 171.921067 0 384 0s384 95.5136 384 213.333333v170.666667z m255.4368 213.333333H1024v307.2h-0.5632c-8.7808 66.7136-119.790933 119.466667-255.4368 119.466667s-246.656-52.753067-255.4368-119.466667H512V597.333333h0.5632C521.344 530.619733 632.354133 477.866667 768 477.866667s246.656 52.753067 255.4368 119.466666zM651.264 719.812267C618.0608 727.594667 597.333333 738.6624 597.333333 750.933333c0 23.560533 76.407467 42.666667 170.666667 42.666667s170.666667-19.106133 170.666667-42.666667c0-12.270933-20.736-23.338667-53.922134-31.121066C849.749333 728.797867 810.052267 733.866667 768 733.866667c-42.052267 0-81.749333-5.0688-116.744533-14.0544z m0 145.066666C618.0608 872.661333 597.333333 883.729067 597.333333 896c0 23.560533 76.407467 42.666667 170.666667 42.666667s170.666667-19.106133 170.666667-42.666667c0-12.270933-20.736-23.338667-53.922134-31.121067C849.749333 873.864533 810.052267 878.933333 768 878.933333c-42.052267 0-81.749333-5.0688-116.744533-14.0544zM384 341.333333c164.949333 0 298.666667-57.309867 298.666667-128 0-70.690133-133.717333-128-298.666667-128s-298.666667 57.309867-298.666667 128c0 70.690133 133.717333 128 298.666667 128z m384 307.2c94.2592 0 170.666667-19.106133 170.666667-42.666666s-76.407467-42.666667-170.666667-42.666667-170.666667 19.106133-170.666667 42.666667 76.407467 42.666667 170.666667 42.666666z" p-id="19707"></path></svg>