<?xml version="1.0" standalone="no"?><!DOCTYPE svg PUBLIC "-//W3C//DTD SVG 1.1//EN" "http://www.w3.org/Graphics/SVG/1.1/DTD/svg11.dtd"><svg t="1585216955092" class="icon" viewBox="0 0 1280 1024" version="1.1" xmlns="http://www.w3.org/2000/svg" p-id="1165" xmlns:xlink="http://www.w3.org/1999/xlink" width="80" height="64"><defs><style type="text/css"></style></defs><path d="M1181.312 18.624A96.64 96.64 0 0 1 1275.712 115.2v781.824a96.64 96.64 0 0 1-96.576 96.64h-3.2l-3.136-0.64c-1.92-0.384-196.352-36.096-362.88-12.672a34.304 34.304 0 0 1-12.224 2.24c-13.248 0-37.376 6.976-60.8 13.632-33.216 9.6-67.584 19.392-98.752 19.392-36.992 0-74.56-12.352-104.704-22.336a312.32 312.32 0 0 0-38.464-11.136h-0.32a32.448 32.448 0 0 1-3.648-0.896l-0.256-0.064c-19.968-6.016-75.008-14.528-219.328-4.48-81.92 5.632-155.712 14.848-169.6 16.64a39.04 39.04 0 0 1-6.272 0.256A96.64 96.64 0 0 1 0.64 897.024V115.2C0.576 62.72 42.688 19.84 94.976 18.56 113.536 16.512 258.176 0.64 383.168 0.64c108.416 0 181.056 22.656 207.872 36.48 7.936 3.648 28.608 13.888 47.104 29.888 18.56-16 39.168-26.24 47.104-29.888 26.88-13.824 99.456-36.48 207.872-36.48 125.056 0 269.632 16 288.192 18.048zM508.48 914.752c14.08 2.56 29.824 7.68 46.464 13.248 15.744 5.12 32.64 10.752 49.216 14.464a34.688 34.688 0 0 1-0.384-5.248v-806.4c-2.688-7.552-23.168-23.04-41.92-31.488l-1.28-0.64-0.64-0.32c-19.968-10.112-82.24-29.056-176.768-29.056-126.976 0-280.512 17.664-282.048 17.856l-1.984 0.192h-1.984a27.84 27.84 0 0 0-27.84 27.84v781.824c0 14.72 11.52 26.88 26.112 27.776 57.472-7.296 316.16-37.76 413.056-10.048z m698.496-17.728V115.2a27.84 27.84 0 0 0-27.84-27.84h-1.92l-2.048-0.192c-1.536-0.192-155.072-17.856-282.048-17.856-94.592 0-156.8 19.008-176.768 29.056l-1.152 0.64-0.832 0.32c-18.624 8.512-39.168 23.936-41.856 31.552v806.4a34.688 34.688 0 0 1-0.32 4.992c14.912-3.328 30.912-7.872 45.824-12.16 25.472-7.296 49.728-14.208 70.656-15.872 1.28-0.384 2.56-0.64 3.84-0.832 168.576-25.6 358.912 5.952 389.12 11.328a27.84 27.84 0 0 0 25.344-27.712zM151.296 387.392a34.368 34.368 0 1 1-16.64-66.688c39.872-9.984 114.24-28.544 239.36-28.544h0.448c73.408 0.832 122.496 12.416 175.168 41.28a34.368 34.368 0 0 1-33.088 60.352c-42.304-23.232-80.96-32.128-142.72-32.896-116.544 0-185.472 17.28-222.528 26.496z m400 227.2a34.368 34.368 0 1 1-28.16 62.72c-0.768-0.384-81.024-35.84-149.12-35.84-113.088 0-153.152 10.88-195.52 22.464-6.912 1.92-14.08 3.84-21.504 5.76a34.368 34.368 0 1 1-16.96-66.688c6.912-1.728 13.44-3.52 20.352-5.44 44.928-12.16 91.328-24.832 213.696-24.832 82.944 0 173.376 40.128 177.152 41.792z m586.816-301.952a34.368 34.368 0 1 1-13.44 67.456c-88.064-17.536-151.744-28.608-231.168-23.296h-2.304c-77.376 0-131.456 28.544-131.968 28.8a34.24 34.24 0 0 1-46.72-13.568 34.368 34.368 0 0 1 13.632-46.72c2.752-1.472 68.48-36.928 163.904-37.248 87.296-5.696 154.944 6.08 248.064 24.576z" p-id="1166"></path></svg>