<?xml version="1.0" standalone="no"?><!DOCTYPE svg PUBLIC "-//W3C//DTD SVG 1.1//EN" "http://www.w3.org/Graphics/SVG/1.1/DTD/svg11.dtd"><svg t="1582184440729" class="icon" viewBox="0 0 1299 1024" version="1.1" xmlns="http://www.w3.org/2000/svg" p-id="11572" xmlns:xlink="http://www.w3.org/1999/xlink" width="81.1875" height="64"><defs><style type="text/css"></style></defs><path d="M649.846154 0h468.676923c15.753846 0 35.446154 0 51.2 3.938462C1256.369231 15.753846 1299.692308 66.953846 1299.692308 157.538462v693.16923c0 102.4-63.015385 169.353846-153.6 169.353846H153.6C59.076923 1024 0 957.046154 0 858.584615V165.415385C0 55.138462 51.2 0 153.6 0h496.246154z m-141.784616 787.692308v-129.969231c-3.938462-51.2-39.384615-98.461538-86.646153-102.4-63.015385-3.938462-122.092308-3.938462-185.107693 0-43.323077 3.938462-74.830769 35.446154-82.707692 78.769231-7.876923 51.2-3.938462 102.4-7.876923 153.6h362.338461zM437.169231 350.523077c0-66.953846-47.261538-118.153846-110.276923-118.153846-63.015385 0-110.276923 51.2-110.276923 118.153846S267.815385 472.615385 326.892308 472.615385c63.015385 0 110.276923-55.138462 110.276923-122.092308zM866.461538 634.092308h173.292308c31.507692 0 47.261538-15.753846 51.2-43.323077 0-31.507692-11.815385-47.261538-47.261538-47.261539h-346.584616c-35.446154 0-47.261538 19.692308-47.261538 47.261539s15.753846 39.384615 51.2 39.384615c51.2 3.938462 110.276923 3.938462 165.415384 3.938462z m0 161.476923h173.292308c31.507692 0 47.261538-15.753846 51.2-43.323077 0-27.569231-15.753846-47.261538-47.261538-47.261539h-350.523077c-11.815385 0-27.569231 3.938462-31.507693 11.815385-7.876923 11.815385-15.753846 35.446154-7.876923 43.323077 7.876923 15.753846 27.569231 27.569231 39.384616 27.569231 55.138462 7.876923 114.215385 7.876923 173.292307 7.876923z m63.015385-322.953846h110.276923c31.507692 0 51.2-15.753846 51.2-43.323077 0-31.507692-23.630769-39.384615-47.261538-39.384616h-228.43077c-27.569231 0-47.261538 19.692308-43.323076 43.323077 3.938462 31.507692 23.630769 39.384615 47.261538 39.384616h110.276923z m0 0" p-id="11573"></path></svg>