<?xml version="1.0" standalone="no"?><!DOCTYPE svg PUBLIC "-//W3C//DTD SVG 1.1//EN" "http://www.w3.org/Graphics/SVG/1.1/DTD/svg11.dtd"><svg t="1585217042912" class="icon" viewBox="0 0 1024 1024" version="1.1" xmlns="http://www.w3.org/2000/svg" p-id="3257" xmlns:xlink="http://www.w3.org/1999/xlink" width="64" height="64"><defs><style type="text/css"></style></defs><path d="M6.974903 452.242286L246.24957 1024H57.687284A58.172952 58.172952 0 0 1 0.00195 965.339429v-508.099048a58.172952 58.172952 0 0 1 57.685334-58.660571H246.24957a58.172952 58.172952 0 0 1 57.685333 58.660571V965.485714A58.319238 58.319238 0 0 1 246.24957 1024z m108.397714 454.582857h73.142857V515.900952h-73.142857v390.924191zM606.18557 1024h-188.367239a58.148571 58.148571 0 0 1-57.685333-58.660571V274.090667a58.148571 58.148571 0 0 1 57.685333-58.660572h188.489143a58.172952 58.172952 0 0 1 57.685334 58.660572v691.248762A58.514286 58.514286 0 0 1 606.18557 1024zM475.430522 906.825143h73.142857V332.751238h-73.142857v574.073905zM966.316617 1024H777.754331a58.172952 58.172952 0 0 1-57.685333-58.660571V58.953143A58.172952 58.172952 0 0 1 777.754331 0.316952h188.513524A58.172952 58.172952 0 0 1 1024.00195 58.953143v906.386286A58.172952 58.172952 0 0 1 966.316617 1024z m-130.803809-117.150476h73.142857V117.613714h-73.142857v789.211429z m0 0" p-id="3258"></path></svg>