<?xml version="1.0" standalone="no"?><!DOCTYPE svg PUBLIC "-//W3C//DTD SVG 1.1//EN" "http://www.w3.org/Graphics/SVG/1.1/DTD/svg11.dtd"><svg t="1582184207901" class="icon" viewBox="0 0 1024 1024" version="1.1" xmlns="http://www.w3.org/2000/svg" p-id="7696" xmlns:xlink="http://www.w3.org/1999/xlink" width="64" height="64"><defs><style type="text/css"></style></defs><path d="M895.999 128.5 128 128.5c-35.346 0-64 28.69-64 64.083L64 705.25c0 35.396 28.654 64.083 64 64.083l288 0 0 63.084-64.003 0c-17.673 0-31.996 14.346-31.996 32.041 0 17.699 14.325 32.041 31.996 32.041l320.006 0c17.675 0 31.998-14.346 31.998-32.041 0-17.699-14.325-32.041-31.998-32.041l-64.004 0 0-63.084 288 0c35.346 0 64.001-28.69 64.001-64.083L960 192.584C960 157.188 931.346 128.5 895.999 128.5zM876.001 706.25 148 706.25c-11.046 0-20-8.966-20-20.019l0-472.63c0-11.057 8.957-20.019 20-20.019l728 0c11.044 0 19.998 8.966 19.998 20.019l0 472.63 0.001 0C895.999 697.287 887.042 706.25 876.001 706.25z" p-id="7697"></path><path d="M276 512 236 512c-6.626 0-12 5.372-12 11.999l0 104.002c0 6.621 5.373 11.999 12 11.999L276 640c6.626 0 12-5.372 12-11.999L288 523.999C288 517.378 282.627 512 276 512z" p-id="7698"></path><path d="M404 448l-40 0c-6.626 0-12 5.369-12 11.992l0 168.016c0 6.619 5.373 11.992 12 11.992l40 0c6.626 0 12-5.369 12-11.992L416 459.992C416 453.373 410.627 448 404 448z" p-id="7699"></path><path d="M532 256l-40 0c-6.626 0-12 5.37-12 11.993l0 360.014c0 6.62 5.373 11.993 12 11.993l40 0c6.626 0 12-5.369 12-11.993L544 267.993C544 261.373 538.627 256 532 256z" p-id="7700"></path><path d="M788 320l-40 0c-6.626 0-12 5.376-12 12.009l0 295.982c0 6.639 5.373 12.009 12 12.009l40 0c6.626 0 12-5.376 12-12.009L800 332.009C800 325.37 794.627 320 788 320z" p-id="7701"></path><path d="M660 412l-40 0c-6.626 0-12 5.371-12 11.997l0 204.006c0 6.628 5.373 11.997 12 11.997l40 0c6.626 0 12-5.371 12-11.997L672 423.997C672 417.369 666.627 412 660 412z" p-id="7702"></path></svg>