<?xml version="1.0" standalone="no"?><!DOCTYPE svg PUBLIC "-//W3C//DTD SVG 1.1//EN" "http://www.w3.org/Graphics/SVG/1.1/DTD/svg11.dtd"><svg t="1582184272107" class="icon" viewBox="0 0 1024 1024" version="1.1" xmlns="http://www.w3.org/2000/svg" p-id="9397" xmlns:xlink="http://www.w3.org/1999/xlink" width="64" height="64"><defs><style type="text/css"></style></defs><path d="M514.957 601.7l-28.339-28.456-22.132-22.132c-7.026-7.026-11.944-12.296-14.755-15.809-5.62-4.918-12.998-8.9-22.132-12.061-9.134-3.162-16.863-1.171-23.186 5.738-5.621 7.728-7.026 15.223-4.216 22.6 2.81 7.378 5.972 13.116 9.485 17.331l15.81 14.755a5826.803 5826.803 0 0 0 25.293 27.402c10.54 11.242 22.132 23.186 34.662 35.716l-1.054 22.132h-71.549c-6.323 0-11.71 2.46-16.277 7.378s-6.792 10.188-6.792 15.808 2.108 10.54 6.324 14.755c4.215 4.216 9.836 6.324 16.862 6.324h71.55v36.77h-71.55c-6.323 0-11.71 1.873-16.277 5.738-4.567 3.864-6.792 8.9-6.792 15.223-0.702 5.62 1.171 10.305 5.738 14.17 4.567 3.864 10.305 5.737 17.331 5.737h71.55v21.079c0.702 9.836 3.864 16.628 9.485 20.492 5.62 3.865 12.647 5.738 21.078 5.738 8.431 0.703 15.223-1.99 20.493-7.845 5.27-5.973 7.846-12.062 7.846-18.385v-21.079h73.54c7.026 0 12.764-1.64 17.33-4.684 4.567-3.162 6.441-8.197 5.738-15.223 0-14.755-9.836-22.132-29.392-22.132h-67.334l1.054-35.716 68.388-1.054c9.836 0.702 16.862-1.171 21.078-5.738 4.216-4.567 6.324-9.954 6.324-16.277 0-5.621-2.225-10.657-6.792-15.224s-11.71-6.791-21.547-6.791h-68.387v-20.025c11.944-11.242 22.834-22.132 32.554-32.554 8.431-8.431 16.862-16.98 25.294-25.763 8.431-8.782 14.755-14.871 18.97-18.385 16.16-14.052 19.673-26.347 10.54-36.77-4.919-6.323-11.242-9.485-18.971-9.485s-14.755 2.81-21.078 8.432c-3.513 2.81-9.486 7.845-17.917 15.223-8.431 7.377-16.863 14.872-25.294 22.6-9.836 9.017-20.61 19.205-32.554 30.447z m111.48-322.85c8.432 11.242 18.971 23.538 31.501 36.77 10.54 11.945 23.537 25.411 38.878 40.518 15.457 15.106 33.257 31.032 53.632 47.894 16.863 14.755 34.194 32.086 52.11 51.993 17.917 20.025 33.492 43.328 46.841 69.91 13.35 26.7 22.601 57.263 27.87 92.042 5.27 34.662 4.333 73.423-2.576 116.165-6.323 35.013-18.736 68.153-37.355 99.42-18.62 31.148-43.328 58.316-74.126 81.502-30.797 23.186-67.45 41.571-109.84 55.155-42.392 13.701-90.638 20.493-144.622 20.493-55.389 0-104.454-7.846-147.196-23.655s-79.044-36.301-108.905-61.478c-29.744-25.294-53.398-53.398-70.964-84.665-17.565-31.149-29.158-62.18-34.662-93.096-6.323-34.31-7.143-67.333-2.576-98.833s12.764-61.127 24.708-88.88c11.945-27.637 26.817-53.048 44.733-76.234 17.917-23.186 37.356-43.796 58.317-62.064 18.268-16.16 34.662-31.383 49.417-45.787 14.755-14.403 26.933-27.518 36.77-39.463 11.944-13.35 22.483-25.996 31.5-37.824h236.546zM507.58 68.536c1.406 0 3.162-0.703 5.27-2.108 4.216-2.81 9.837-7.729 16.863-14.755 8.431-7.729 16.862-13.35 25.294-16.863 8.43-3.513 19.673-2.459 33.608 3.162 7.026 2.108 12.647 5.036 16.862 8.9 4.216 3.864 8.198 7.494 12.062 11.007 3.864 3.514 8.08 6.441 12.647 8.9 4.45 2.576 10.305 3.865 17.214 3.865 7.026 0 12.998-1.054 17.916-3.162a401.874 401.874 0 0 1 14.17-5.738 65.909 65.909 0 0 1 13.7-3.63c4.568-0.703 9.954 0 16.278 2.108 7.026 2.81 11.71 6.791 14.17 12.061 2.458 5.27 3.16 10.656 2.107 16.277-1.054 5.621-3.513 11.242-7.377 16.863-3.865 5.62-8.549 10.188-14.17 13.7-13.35 8.432-23.537 16.98-30.446 25.763a640.138 640.138 0 0 0-21.079 27.87c-3.513 4.919-7.377 10.54-11.593 16.863a274.887 274.887 0 0 0-11.593 18.97 233.674 233.674 0 0 1-13.7 22.133H398.205a734.66 734.66 0 0 0-14.754-24.24 357.678 357.678 0 0 0-13.701-21.079c-4.919-7.026-9.134-13.35-12.647-18.97-7.026-10.54-14.872-19.79-23.655-27.87-8.782-8.08-17.33-15.224-25.762-21.547-9.134-6.324-15.458-14.872-18.97-25.763s-0.352-20.141 9.485-27.87c4.918-3.513 10.539-4.918 16.862-4.215 6.324 0.702 12.998 2.107 20.025 4.215a1479.914 1479.914 0 0 1 20.492 6.324c6.675 2.108 12.764 2.459 18.385 1.054 9.837-2.108 17.214-5.738 22.133-11.008 4.918-5.27 13.35-11.71 25.294-19.439 9.133-5.62 19.321-7.494 30.446-5.738 11.242 1.757 19.673 5.387 25.294 11.008 2.81 3.513 5.738 6.44 8.9 8.9a99.232 99.232 0 0 0 9.953 6.791 71.906 71.906 0 0 0 11.593 7.26z m0 0" p-id="9398"></path></svg>