<?xml version="1.0" standalone="no"?><!DOCTYPE svg PUBLIC "-//W3C//DTD SVG 1.1//EN" "http://www.w3.org/Graphics/SVG/1.1/DTD/svg11.dtd"><svg t="1582184679157" class="icon" viewBox="0 0 1024 1024" version="1.1" xmlns="http://www.w3.org/2000/svg" p-id="12328" xmlns:xlink="http://www.w3.org/1999/xlink" width="64" height="64"><defs><style type="text/css"></style></defs><path d="M512 0C228.894118 0 0 228.894118 0 512 0 795.105882 228.894118 1024 512 1024S1024 795.105882 1024 512C1024 228.894118 795.105882 0 512 0zM704.752941 544.527059 544.527059 544.527059l0 160.225882c0 18.070588-14.456471 32.527059-32.527059 32.527059-18.070588 0-32.527059-14.456471-32.527059-32.527059L479.472941 544.527059 320.451765 544.527059c-18.070588 0-32.527059-14.456471-32.527059-32.527059 0-18.070588 14.456471-32.527059 32.527059-32.527059l160.225882 0L480.677647 320.451765c0-18.070588 14.456471-32.527059 32.527059-32.527059 18.070588 0 32.527059 14.456471 32.527059 32.527059l0 160.225882 160.225882 0c18.070588 0 32.527059 14.456471 32.527059 32.527059C736.075294 530.070588 721.618824 544.527059 704.752941 544.527059z" p-id="12329"></path></svg>