<?xml version="1.0" standalone="no"?><!DOCTYPE svg PUBLIC "-//W3C//DTD SVG 1.1//EN" "http://www.w3.org/Graphics/SVG/1.1/DTD/svg11.dtd"><svg t="1582530004328" class="icon" viewBox="0 0 1024 1024" version="1.1" xmlns="http://www.w3.org/2000/svg" p-id="3090" xmlns:xlink="http://www.w3.org/1999/xlink" width="64" height="64"><defs><style type="text/css"></style></defs><path d="M1021.9 591.5c0-23.4-9.3-45.5-26.1-62l-25.5-25c-16.9-16.6-39-26-62.2-26.4-24.3-0.4-47.2 8.7-64.3 25.6L553.5 788.6l-58.3 151.5c-6 15.6-2.4 32.7 9.4 44.7 8.4 8.5 19.4 13 30.7 13 5.1 0 10.2-0.9 15.2-2.7l154.9-56.6 290.3-284.9c16.9-16.6 26.2-38.7 26.2-62.1zM660.2 884.2l-83.8 30.7 31.5-82 52.3 51.3z m225.1-215.7l-175 171.8-57.5-56.5 175-171.8 57.5 56.5z m69.7-77.6c0 5.8-2.3 11.2-6.4 15.3l-16 15.8-57.5-56.4 15.8-15.6c4.2-4.1 9.8-6.3 15.8-6.3s11.6 2.3 15.8 6.3l26.2 25.8c4.1 4 6.3 9.4 6.3 15.1zM1021.7 980.4c-0.1-1.7-0.4-3.9-1-6.6l-1.3-9.8c-11.1-80.1-38-154.7-79.9-221.7l-6.7-10.7-56.3 53.7 4.2 7c32.6 54.6 53.8 114 63.2 176.7l2.2 13.7v0.2c0 20.6 17.1 37.4 38 37.4s37.5-16.5 37.9-37.5V981l-0.3-0.6zM640.3 594.5c20.1 6.7 40.6 15.5 60.8 26l7 3.7 51.9-57.1-11.5-6.3c-11.5-6.3-21.1-11.2-30.1-15.5C787.7 486 827.3 400.8 827.3 311c0-171.5-142-311-316.6-311-174.6 0-316.6 139.5-316.6 311 0 89.8 39.6 175 108.7 234.3C140.3 621.5 27.9 777.7 1.9 964L0 977.6v5.4c0 20.6 17 37.4 37.9 37.4 21 0 38-16.8 38-37.4v-0.6l-0.3-2.4 1.7-10.9c26.5-175 145.6-321.9 303.6-374.5 41.3 18.3 84.9 27.6 129.7 27.6 44.8-0.1 88.5-9.4 129.7-27.7z m-180.8-52.1c-23-4.9-45-13-65.5-24.3C317.1 476.3 269.4 397 269.4 311c0-130.5 108.2-236.7 241.2-236.7S751.8 180.5 751.8 311c0 85.9-47.8 165.2-124.6 207.1-20.5 11.1-42.6 19.3-65.6 24.3-16.9 3.6-34 5.4-51.1 5.4-16.9 0-34.1-1.8-51-5.4z" p-id="3091"></path></svg>