<?xml version="1.0" standalone="no"?><!DOCTYPE svg PUBLIC "-//W3C//DTD SVG 1.1//EN" "http://www.w3.org/Graphics/SVG/1.1/DTD/svg11.dtd"><svg t="1582184231458" class="icon" viewBox="0 0 1024 1024" version="1.1" xmlns="http://www.w3.org/2000/svg" p-id="8479" xmlns:xlink="http://www.w3.org/1999/xlink" width="64" height="64"><defs><style type="text/css"></style></defs><path d="M166.4 627.2c12.8 12.8 25.6 12.8 38.4 12.8h6.4c19.2 0 38.4-6.4 44.8-25.6l128-172.8 128 108.8c12.8 12.8 32 19.2 44.8 12.8 19.2 0 32-12.8 44.8-25.6l300.8-384 6.4-6.4 51.2-64c25.6-32 12.8-57.6-25.6-44.8l-249.6 38.4c-44.8 6.4-51.2 38.4-19.2 64l57.6 51.2-172.8 224-128-108.8c-19.2-12.8-32-19.2-51.2-19.2-19.2 0-32 12.8-44.8 25.6l-128 172.8-64-51.2c-25.6-19.2-64-19.2-89.6 12.8-19.2 25.6-19.2 64 6.4 89.6l115.2 89.6z" p-id="8480"></path><path d="M908.8 339.2l-288 352c-12.8 19.2-44.8-6.4-64-19.2L441.6 569.6c-19.2-12.8-38.4 6.4-57.6 25.6l-134.4 166.4c-12.8 19.2-38.4 0-51.2-19.2l-121.6-96c-19.2-19.2-38.4 0-38.4 44.8v249.6c0 19.2 19.2 38.4 38.4 38.4h876.8c19.2 0 38.4-19.2 38.4-38.4V352c0-51.2-44.8-57.6-83.2-12.8z" p-id="8481"></path></svg>