<?xml version="1.0" standalone="no"?><!DOCTYPE svg PUBLIC "-//W3C//DTD SVG 1.1//EN" "http://www.w3.org/Graphics/SVG/1.1/DTD/svg11.dtd"><svg t="1582184412265" class="icon" viewBox="0 0 1024 1024" version="1.1" xmlns="http://www.w3.org/2000/svg" p-id="10817" xmlns:xlink="http://www.w3.org/1999/xlink" width="64" height="64"><defs><style type="text/css"></style></defs><path d="M512 1024C229.677176 1024 0 794.302745 0 512 0 229.677176 229.677176 0 512 0 794.302745 0 1024 229.677176 1024 512 1024 794.302745 794.302745 1024 512 1024ZM194.519843 612.512627C194.519843 613.556706 195.001725 614.440157 195.102118 615.444078 195.302902 617.873569 195.704471 620.16251 196.527686 622.451451 197.009569 623.816784 197.632 625.041569 198.314667 626.326588 199.258353 628.09349 200.302431 629.699765 201.627608 631.245804 203.274039 633.233569 205.121255 634.859922 207.209412 636.385882 207.470431 636.566588 207.61098 636.867765 207.892078 637.028392 207.892078 637.028392 210.442039 638.574431 210.442039 638.574431 211.445961 639.136627 212.289255 639.899608 213.353412 640.341333 213.353412 640.341333 366.170353 733.143843 366.170353 733.143843 379.281569 741.094902 396.528941 736.89851 404.48 723.787294 404.48 723.787294 406.809098 719.952314 406.809098 719.952314 414.760157 706.861176 410.543686 689.613804 397.432471 681.662745 397.432471 681.662745 333.18149 642.630275 333.18149 642.630275 333.18149 642.630275 806.912 642.630275 806.912 642.630275 823.476706 642.630275 837.029647 629.077333 837.029647 612.512627 837.029647 595.947922 823.476706 582.39498 806.912 582.39498 806.912 582.39498 230.420078 582.39498 230.420078 582.39498 221.465098 580.527686 212.369569 583.29851 205.703529 589.663373 203.876392 591.169255 202.390588 592.896 200.96502 594.783373 200.944941 594.823529 200.884706 594.863686 200.864627 594.903843 200.864627 594.903843 200.583529 595.345569 200.583529 595.345569 198.194196 598.678588 196.587922 602.413176 195.724549 606.549333 195.383216 607.954824 195.001725 609.300078 194.881255 610.725647 194.841098 611.348078 194.519843 611.890196 194.519843 612.512627ZM837.752471 447.849412C837.531608 438.65349 833.27498 429.718588 824.882196 424.618667 824.882196 424.618667 666.603922 328.503216 666.603922 328.503216 653.492706 320.552157 636.265412 324.748549 628.294275 337.859765 628.294275 337.859765 625.985255 341.674667 625.985255 341.674667 618.014118 354.785882 622.230588 372.033255 635.341804 379.984314 635.341804 379.984314 701.660863 420.261647 701.660863 420.261647 701.660863 420.261647 225.882353 420.261647 225.882353 420.261647 209.317647 420.261647 195.764706 433.814588 195.764706 450.379294 195.764706 466.944 209.317647 480.496941 225.882353 480.496941 225.882353 480.496941 808.156863 480.496941 808.156863 480.496941 810.124549 480.496941 811.851294 479.733961 813.718588 479.372549 814.260706 479.252078 814.762667 479.191843 815.304784 479.051294 827.331765 475.999373 836.286745 466.060549 837.652078 453.471373 837.732392 452.949333 837.89302 452.467451 837.953255 451.945412 837.993412 451.383216 838.27451 450.94149 838.27451 450.379294 838.27451 449.495843 837.832784 448.732863 837.752471 447.849412Z" p-id="10818"></path></svg>