<?xml version="1.0" standalone="no"?><!DOCTYPE svg PUBLIC "-//W3C//DTD SVG 1.1//EN" "http://www.w3.org/Graphics/SVG/1.1/DTD/svg11.dtd"><svg t="1582191314810" class="icon" viewBox="0 0 1024 1024" version="1.1" xmlns="http://www.w3.org/2000/svg" p-id="18340" xmlns:xlink="http://www.w3.org/1999/xlink" width="64" height="64"><defs><style type="text/css"></style></defs><path d="M440.32 79.872c-91.648 16.896-147.456 38.912-202.24 79.872C149.504 225.28 77.312 358.4 76.8 455.68c0 15.872 2.56 31.232 6.144 34.816 8.192 8.192 32.256 7.68 38.912-0.512 3.072-3.584 14.848-34.816 26.112-69.632 40.96-124.416 101.376-201.216 192.512-244.224 58.368-27.648 93.696-35.328 168.96-35.328 78.336 0 112.128 7.68 176.64 38.912 34.816 16.896 52.224 29.696 84.992 63.488 34.816 34.816 46.08 50.688 68.096 95.232 14.336 29.184 31.232 72.704 36.864 96.768 11.776 45.568 22.528 61.44 43.008 61.44 6.144 0 14.848-4.096 19.456-9.216 7.68-8.192 8.704-27.648 8.704-165.888 0-144.896-0.512-156.672-9.216-164.352-23.04-20.992-51.712 0-52.736 37.888 0 12.288-2.048 33.28-3.584 46.08l-3.584 24.064-28.16-33.792c-58.88-70.656-136.192-121.344-215.04-141.824-32.256-8.192-166.4-14.848-194.56-9.728z" p-id="18341"></path><path d="M419.328 227.328c-43.52 15.36-82.944 41.472-122.368 81.408C237.568 368.64 215.04 424.448 215.04 512s22.528 143.36 81.92 203.264c39.424 39.936 78.848 66.048 122.368 81.408 48.64 17.408 141.824 17.408 190.464 0 44.032-15.36 81.92-40.96 122.368-81.92 59.392-60.928 81.92-116.224 81.92-202.752 0-86.528-22.528-141.824-81.92-202.752-40.448-40.96-78.336-66.56-122.368-81.92-48.64-17.408-141.824-17.408-190.464 0zM512 296.448c0 7.68 5.12 10.24 25.088 12.8 13.824 2.048 41.472 11.776 61.952 21.504 39.936 19.968 59.392 43.008 65.024 75.776 2.56 16.896 2.048 18.432-9.216 18.432-6.656 0-20.992 1.536-31.232 3.072-16.384 3.072-19.456 2.048-19.456-5.632 0-19.456-25.088-52.736-48.64-64-28.16-13.312-73.216-14.848-101.376-3.584-33.28 14.336-49.152 54.272-31.232 79.872 11.264 15.872 32.768 24.064 103.424 38.912C634.88 496.64 675.84 527.872 675.84 587.264c0 15.36-3.072 34.816-7.168 44.032-14.848 36.352-60.928 61.44-125.44 68.608-20.992 2.56-28.16 5.632-30.208 12.8-3.072 12.8-26.624 12.8-26.624 0 0-7.168-8.192-11.264-38.4-18.944-44.032-10.752-65.536-24.576-84.992-54.272-12.288-17.408-24.576-58.368-18.944-62.976 0.512-1.024 14.848-3.072 30.72-4.096l28.672-2.56 3.584 17.408c3.072 17.408 31.744 53.76 49.664 63.488 5.12 3.072 22.528 7.168 38.4 9.728 56.32 9.216 102.912-11.776 114.688-51.2 13.312-44.544-15.36-67.584-108.544-86.528-70.656-14.336-102.912-28.16-124.416-51.712-25.088-27.648-27.648-72.192-6.656-109.056 12.288-22.016 59.392-48.64 95.232-53.248 15.872-2.048 20.992-5.12 20.992-12.288s3.584-9.728 12.8-9.728 12.8 2.56 12.8 9.728z" p-id="18342"></path><path d="M82.944 533.504c-4.608 4.608-6.144 46.08-6.144 168.96 0 155.136 0.512 162.816 9.728 167.936 33.792 17.92 51.712-7.68 51.712-74.24v-46.08l13.824 17.92c27.648 36.864 102.4 106.496 134.144 124.928 69.632 40.448 151.552 57.856 251.392 52.736 129.536-6.656 222.208-49.664 299.008-139.776 63.488-74.752 103.936-158.208 109.056-224.768 3.072-40.448-3.584-53.76-26.624-53.76-21.504 0-31.744 15.36-43.52 64-19.456 81.92-54.784 141.312-121.344 202.24-40.448 36.864-79.36 56.832-144.896 74.24-90.112 23.552-124.928 22.528-224.256-8.192-58.88-17.92-92.672-39.424-142.336-88.576C188.416 716.8 171.008 687.616 153.6 619.52c-18.944-71.168-28.16-89.088-49.152-91.136-8.192-1.024-17.92 1.536-21.504 5.12z" p-id="18343"></path></svg>